<?xml version="1.0" standalone="no"?>
<!DOCTYPE svg PUBLIC "-//W3C//DTD SVG 20010904//EN" "http://www.w3.org/TR/2001/REC-SVG-20010904/DTD/svg10.dtd">
<svg xmlns="http://www.w3.org/2000/svg" version="1.0" width="43.000000pt" height="172.000000pt" viewBox="0 0 43.000000 172.000000" preserveAspectRatio="xMidYMid meet">
<metadata>
Created by potrace 1.16, written by Peter Selinger 2001-2019
<meta name="Producer" content="Online-Convert"/></metadata>
<g transform="translate(0.000000,172.000000) scale(0.100000,-0.100000)" fill="#000000" stroke="none">
<path d="M330 1419 l0 -300 48 3 47 3 3 298 2 297 -50 0 -50 0 0 -301z"/>
<path d="M42 1122 c-18 -15 -32 -31 -32 -35 0 -4 72 -94 160 -200 l160 -192 0 -342 0 -343 50 0 50 0 0 359 0 359 -175 211 c-96 116 -176 211 -177 211 -2 0 -18 -13 -36 -28z"/>
</g>
</svg>
